<?xml version="1.0" encoding="UTF-8" standalone="no"?>
<!DOCTYPE svg PUBLIC "-//W3C//DTD SVG 1.1//EN" "http://www.w3.org/Graphics/SVG/1.1/DTD/svg11.dtd">
<svg width="100%" height="100%" viewBox="0 0 192 192" version="1.1" xmlns="http://www.w3.org/2000/svg" xmlns:xlink="http://www.w3.org/1999/xlink" xml:space="preserve" xmlns:serif="http://www.serif.com/" style="fill-rule:evenodd;clip-rule:evenodd;stroke-linejoin:round;stroke-miterlimit:2;">
    <rect x="0" y="0" width="192" height="192" style="fill:none;"/>
    <g>
        <g>
            <path d="M19.79,51.98L31.92,88.99L57.9,117.99L96,52L172.21,51.99C156.99,25.69 128.56,8 96,8C63.44,8 35.01,25.69 19.79,51.98Z" style="fill:rgb(71,76,201);fill-rule:nonzero;"/>
            <path d="M95.99,184L121.97,154.99L134.09,117.99L57.89,117.99L19.78,51.99C4.62,78.32 3.51,111.79 19.79,139.99C36.08,168.19 65.62,183.97 95.99,184Z" style="fill:rgb(2,0,157);fill-rule:nonzero;"/>
            <path d="M172.21,52L96,52L134.1,118L96,184C126.38,183.97 155.92,168.19 172.2,139.99C188.48,111.79 187.37,78.32 172.21,52Z" style="fill:rgb(4,24,251);fill-rule:nonzero;"/>
        </g>
    </g>
</svg>
